<?xml version="1.0" encoding="UTF-8" standalone="no"?>
<!-- Generator: Adobe Illustrator 21.0.0, SVG Export Plug-In . SVG Version: 6.00 Build 0)  -->

<svg
   xmlns:dc="http://purl.org/dc/elements/1.1/"
   xmlns:cc="http://creativecommons.org/ns#"
   xmlns:rdf="http://www.w3.org/1999/02/22-rdf-syntax-ns#"
   xmlns:svg="http://www.w3.org/2000/svg"
   xmlns="http://www.w3.org/2000/svg"
   xmlns:sodipodi="http://sodipodi.sourceforge.net/DTD/sodipodi-0.dtd"
   xmlns:inkscape="http://www.inkscape.org/namespaces/inkscape"
   version="1.1"
   id="Layer_1"
   x="0px"
   y="0px"
   viewBox="0 0 350 150"
   style="enable-background:new 0 0 350 150;"
   xml:space="preserve"
   sodipodi:docname="logo.svg"
   inkscape:version="0.92.2 (5c3e80d, 2017-08-06)"><metadata
     id="metadata24"><rdf:RDF><cc:Work
         rdf:about=""><dc:format>image/svg+xml</dc:format><dc:type
           rdf:resource="http://purl.org/dc/dcmitype/StillImage" /></cc:Work></rdf:RDF></metadata><defs
     id="defs22" /><sodipodi:namedview
     pagecolor="#ffffff"
     bordercolor="#666666"
     borderopacity="1"
     objecttolerance="10"
     gridtolerance="10"
     guidetolerance="10"
     inkscape:pageopacity="0"
     inkscape:pageshadow="2"
     inkscape:window-width="1920"
     inkscape:window-height="1018"
     id="namedview20"
     showgrid="false"
     inkscape:zoom="3.92"
     inkscape:cx="165.7747"
     inkscape:cy="99.35743"
     inkscape:window-x="-8"
     inkscape:window-y="-8"
     inkscape:window-maximized="1"
     inkscape:current-layer="Layer_1" /><style
     type="text/css"
     id="style2">
	.st0{fill:#FF0000;}
	.st1{fill:#31BC1D;}
	.st2{font-family:'LevenimMT';}
	.st3{font-size:36px;}
</style><text
     transform="scale(0.85722124,1.16656)"
     class="st1 st2 st3"
     id="text17"
     x="114.04713"
     y="86.983337"
     style="font-size:47.23178864px;font-family:LevenimMT;fill:#31bc1d;stroke-width:1.31199396"><tspan
       style="font-style:normal;font-variant:normal;font-weight:normal;font-stretch:normal;font-size:56px;line-height:12.25;font-family:LevenimMT;-inkscape-font-specification:LevenimMT;letter-spacing:0px;word-spacing:0px"
       id="tspan78">GreatMark</tspan></text>
<g
     id="layer1"
     transform="matrix(0.85164302,0,0,0.86776049,-16.742913,10.666439)"><g
       id="g6"><path
         class="st0"
         d="m 103.6,49.7 c 6,0 10.4,3.6 13.3,10.7 3,8.2 2.7,16.3 -0.7,24.2 0,0 0,0 0,0 -0.1,0 -0.1,-0.1 0,-0.4 0.7,-3.6 1.1,-6.3 1.2,-8.2 0.1,-2.1 0,-4.3 -0.4,-6.4 -0.8,-4.8 -2.6,-9.4 -5.5,-13.8 -1.7,-2.4 -3.9,-3.8 -6.7,-4.3 -1,-0.2 -2.1,-0.3 -3.4,-0.3 -0.4,0 -0.7,0 -1.1,0 0,0 -0.1,0 -0.1,0 -0.6,0 -3.3,0.3 -8,0.8 4.2,-1.5 7.9,-2.3 11.2,-2.3 v 0 c 0,0 0.1,0 0.2,0 z M 42.7,43.9 c -0.1,0 -0.1,0 -0.2,0 H 42.4 C 32.4,44.1 26,50 23.2,61.7 c -1.4,6.8 -1.6,13.7 -0.7,20.5 0.9,5.3 3.3,11.1 7.2,17.5 7.4,11.5 14.5,18.7 21.3,21.5 2.1,0.8 4.3,1.2 6.5,1.2 0.5,0 0.9,0 1.4,0 0.1,0 0.1,0 0.2,0 1.4,0 5.5,-0.8 12.3,-2.3 1,-0.2 2.1,-0.3 3.2,-0.3 0.3,0 0.6,0 0.9,0 0.1,0 0.2,0 0.3,0 1.7,0 5.8,1 12.2,3 1.1,0.2 2.1,0.3 2.9,0.3 0,0 0,0 0.1,0 0,0 0.1,0 0.1,0 4.1,0 8.9,-2.8 14.2,-8.5 6.8,-7.1 11.6,-14.3 14.5,-21.6 2.5,-6.3 3.7,-13.4 3.6,-21.3 -0.2,-8 -1.7,-14.3 -4.5,-18.9 -2.8,-4.5 -6.8,-7 -12.2,-7.6 -0.9,-0.1 -1.9,-0.2 -3.1,-0.2 -1.4,0 -3,0.1 -4.7,0.3 L 79,48.4 c -2.6,0.3 -5.1,0.5 -7.5,0.5 -0.3,0 -0.6,0 -0.8,0 -2.7,0 -5.4,-0.3 -8.3,-0.8 -1.8,-0.2 -6.6,-1.4 -14.2,-3.5 -2.1,-0.5 -3.9,-0.7 -5.5,-0.7 z"
         id="path4"
         inkscape:connector-curvature="0"
         style="fill:#ff0000" /></g><g
       id="g10"><path
         class="st0"
         d="m 71.6,17 c -1.1,5.7 -1.7,10 -1.8,13.1 -0.1,1.6 -0.1,3.3 0,5.1 l 0.1,2.2 0.4,5.9 c 0,1 0,1.6 -0.2,1.9 -1.1,0.1 -2,0.2 -2.9,0.2 -0.7,0 -1.2,0 -1.8,-0.1 -0.9,-0.1 -2.1,-0.3 -3.7,-0.7 -0.5,-0.1 -0.8,-0.3 -0.9,-0.5 -0.1,-0.2 -0.1,-0.5 0,-0.9 0,-0.1 0.3,-1 1,-2.8 l 0.3,-1 c 0.1,-0.5 0.3,-1.4 0.3,-2.7 0.2,-2.6 0.1,-4.8 -0.5,-6.6 -0.6,-2.8 -3.5,-6.9 -8.6,-12.4 v 0 c 3.2,0.3 5.9,0.4 7.9,0.4 0.6,0 1.2,0 1.7,0 2.3,0.1 5.2,-0.3 8.7,-1.1 z"
         id="path8"
         inkscape:connector-curvature="0"
         style="fill:#ff0000" /></g><g
       id="g14"><path
         class="st0"
         d="m 102.6,19.4 v 0 c -2.3,8.2 -4.7,13.8 -6.9,16.7 -2.3,3.2 -5.8,5.5 -10.4,6.9 -4.2,1.2 -8.1,1.8 -11.6,2 l 0.4,-8.2 c 0.1,-0.8 0.1,-1.6 0.2,-2.3 0.3,-1.9 0.8,-3.4 1.7,-4.5 0.9,-1.3 2.6,-2.5 5.2,-3.5 0.8,-0.3 1.9,-0.7 3.3,-1.2 z"
         id="path12"
         inkscape:connector-curvature="0"
         style="fill:#ff0000" /></g></g></svg>