<?xml version="1.0" encoding="UTF-8" standalone="no"?>
<!-- Generator: Adobe Illustrator 21.0.0, SVG Export Plug-In . SVG Version: 6.00 Build 0)  -->

<svg
   xmlns:dc="http://purl.org/dc/elements/1.1/"
   xmlns:cc="http://creativecommons.org/ns#"
   xmlns:rdf="http://www.w3.org/1999/02/22-rdf-syntax-ns#"
   xmlns:svg="http://www.w3.org/2000/svg"
   xmlns="http://www.w3.org/2000/svg"
   xmlns:sodipodi="http://sodipodi.sourceforge.net/DTD/sodipodi-0.dtd"
   xmlns:inkscape="http://www.inkscape.org/namespaces/inkscape"
   version="1.1"
   id="Layer_1"
   x="0px"
   y="0px"
   viewBox="0 0 1920 1000"
   style="enable-background:new 0 0 1920 1000;"
   xml:space="preserve"
   sodipodi:docname="logo.svg"
   inkscape:version="0.92.2 (5c3e80d, 2017-08-06)"><metadata
     id="metadata25"><rdf:RDF><cc:Work
         rdf:about=""><dc:format>image/svg+xml</dc:format><dc:type
           rdf:resource="http://purl.org/dc/dcmitype/StillImage" /><dc:title></dc:title></cc:Work></rdf:RDF></metadata><defs
     id="defs23" /><sodipodi:namedview
     pagecolor="#ffffff"
     bordercolor="#666666"
     borderopacity="1"
     objecttolerance="10"
     gridtolerance="10"
     guidetolerance="10"
     inkscape:pageopacity="0"
     inkscape:pageshadow="2"
     inkscape:window-width="1920"
     inkscape:window-height="1018"
     id="namedview21"
     showgrid="false"
     inkscape:showpageshadow="false"
     showborder="true"
     inkscape:zoom="0.3535534"
     inkscape:cx="674.73507"
     inkscape:cy="673.12605"
     inkscape:window-x="-8"
     inkscape:window-y="-8"
     inkscape:window-maximized="1"
     inkscape:current-layer="g16" /><style
     type="text/css"
     id="style2">
	.st0{fill:#2BBAAC;}
	.st1{fill:#D34452;}
</style><g
     id="g18"><g
       id="g16"><path
         class="st0"
         d="m 1544.1985,247.89521 c -34.393,-67.53895 -70.8614,-133.37879 -71.7509,-227.253661 62.2632,76.883946 131.3457,130.405371 204.5791,172.882681 72.9368,42.47733 148.2456,73.91054 224.4439,105.34375 -75.6053,31.00844 -150.6175,63.71598 -222.9615,107.04285 -72.9369,43.75164 -141.13,98.97214 -205.4685,171.60836 0.8895,-47.14983 11.2667,-86.65373 24.3123,-124.88331 13.3421,-38.65436 31.7246,-72.63623 49.514,-110.44103 h -13.3421 c -313.0948,0 -626.18971,0 -939.28458,-0.42479 -9.78422,0 -14.82457,4.24775 -19.27195,16.99094 -26.98071,75.60963 -54.5544,151.21926 -82.12809,226.40411 -21.94037,60.31779 -43.88073,120.21081 -66.11758,180.10382 -27.27721,73.91054 -54.5544,147.82107 -81.53512,221.73161 -2.37193,6.37159 -5.04035,8.49547 -10.08071,8.49547 -16.30702,-0.42479 -32.61405,-0.42479 -48.92107,0 -5.33684,0 -7.70877,-2.54864 -9.78422,-9.34502 -13.93509,-48.42415 -28.16667,-97.27305 -42.10177,-145.6972 L 184.48917,670.96929 C 167.88565,614.04969 150.98564,556.7053 134.38213,499.7857 117.48212,442.86609 100.8786,385.94649 83.978595,328.6021 80.124209,315.8589 16.270852,112.536 12.416464,99.792806 L 83.44767,61.742856 v 0 0 c 21.05089,73.485754 98.37307,345.442284 120.01694,418.503274 20.4579,70.08758 41.50879,139.75037 61.96669,209.83795 14.23159,48.84891 28.16669,98.1226 42.69476,146.97152 1.48245,5.09729 2.37193,13.16797 6.22633,13.59275 4.74386,0.84955 5.04034,-7.64593 6.81929,-12.31843 27.87019,-76.45916 55.74038,-152.91834 83.61057,-228.95274 21.94035,-59.89302 43.88071,-120.21082 66.11756,-180.10384 20.7544,-56.9196 42.10177,-113.41444 62.85617,-170.33404 2.37193,-6.37159 4.74386,-10.19454 10.08071,-9.345 2.66842,0.42476 5.04035,0 7.70877,0 h 979.31104 c 3.8543,0.42476 8.3017,2.12387 13.342,-1.69909 z"
         id="path4"
         inkscape:connector-curvature="0"
         style="fill:#2bbaac;stroke:#d34452;stroke-width:14.19529915;stroke-miterlimit:4;stroke-dasharray:none;stroke-opacity:1"
         sodipodi:nodetypes="ccccccccsccccccccccccccccccccccccsscc" /><path
         class="st1"
         d="m 587.88535,462.87621 c 0,-30.408 0.36381,-61.16548 0,-91.57349 0,-9.08742 2.91025,-12.23309 12.36853,-12.23309 38.56061,0.34953 77.12123,0.34953 116.04563,0 10.9134,0 13.82365,4.19421 13.82365,13.98069 -0.36377,21.32054 0,21.32054 -22.19059,21.32054 -23.64564,0 -47.29132,0.34949 -70.93697,0 -8.36694,0 -11.64095,2.09711 -10.5496,10.13599 1.4551,13.28165 -5.82049,30.40797 2.91022,39.14593 7.63938,7.33985 25.1008,1.74758 38.19684,2.0971 11.64093,0.34951 23.64568,0.34951 35.28664,0 8.00315,0 12.00469,2.79613 11.27716,10.83502 0,0.69901 0,1.74758 0,2.44661 0.36377,21.67006 0.36377,21.67006 -22.91812,21.67006 -18.18898,0 -36.37795,0.34952 -54.56693,-0.34951 -8.73071,-0.34951 -10.91337,2.79613 -10.54961,10.48551 0.72757,10.13598 0.72757,20.27198 0,30.05846 -0.36376,8.0389 2.18269,10.48553 10.54961,10.48553 26.19215,-0.34954 52.74802,0.34952 78.94015,-0.34954 12.36851,-0.34952 15.27876,4.89323 14.18743,15.02924 -1.09136,9.08744 4.72911,20.97103 -13.45988,20.62152 -38.56061,-0.69903 -77.12126,-0.34951 -116.04563,0 -9.45828,0 -12.73229,-3.14566 -12.73229,-12.23311 0.72757,-30.40797 0.36376,-61.16548 0.36376,-91.57346 z"
         id="path6"
         inkscape:connector-curvature="0"
         style="fill:#d34452;stroke-width:3.56576967" /><path
         class="st1"
         d="m 763.22711,462.5267 c 0.36369,-15.72828 -0.72757,-31.45655 2.1827,-46.83531 6.91176,-34.25265 34.19525,-57.32079 70.2094,-58.01982 39.65198,-0.69902 70.20941,20.97101 78.57639,55.57319 1.81892,7.33987 0,10.83506 -8.0032,10.83506 -4.3653,0 -9.09446,-0.34952 -13.45985,0 -9.82202,1.39805 -14.9149,-1.74759 -19.28027,-11.18456 -6.18422,-14.33017 -23.64566,-22.01959 -38.19685,-19.57296 -17.82523,2.79617 -29.46617,12.93216 -31.64878,31.10703 -3.63782,25.51473 -3.63782,51.379 0,76.89375 2.54639,18.17491 13.45985,28.31089 31.64878,31.10699 15.64254,2.44665 32.01263,-5.59224 40.37955,-20.27195 4.00159,-7.33987 33.10389,-11.18457 38.56062,-5.24275 2.91026,3.49513 0.72748,6.6408 0,9.78648 -10.18581,33.90312 -40.74332,53.47609 -81.48666,51.37897 -33.10388,-1.39804 -59.65981,-24.46619 -66.57158,-57.32077 -4.0016,-16.07779 -2.54656,-32.15557 -2.91025,-48.23335 z"
         id="path8"
         inkscape:connector-curvature="0"
         style="fill:#d34452;stroke-width:3.56576967" /><path
         class="st1"
         d="m 1024.4206,479.653 c 0,24.46619 -0.3637,48.9324 0.3639,73.39859 0.3639,10.48553 -4.0015,14.3302 -14.5511,13.28168 -3.638,-0.34952 -7.2756,-0.34952 -10.91333,0 -10.18582,1.04852 -13.46003,-3.14568 -13.46003,-12.58263 0.36379,-48.93239 0,-97.86477 0.36379,-146.79716 0,-10.13598 -2.54647,-13.98069 -13.45976,-12.93213 -10.54959,1.04855 -21.09917,-0.3495 -31.28498,0.34951 -11.27717,0.69904 -14.91499,-3.84469 -13.82364,-13.98069 0.36379,-1.74759 0.36379,-3.49515 0,-5.24273 -1.81891,-12.58263 3.27395,-16.77684 16.73379,-16.42733 40.74334,0.69905 81.85046,0.69905 122.59366,0 11.641,0 16.0063,2.79614 15.6426,14.67973 -0.7274,20.97102 0,20.62151 -21.463,20.97102 -11.641,0 -27.2835,-3.84469 -34.1954,2.09711 -8.3669,6.64081 -2.1826,22.01959 -2.5465,33.55362 -0.3637,16.42728 0,33.20413 0,49.63141 z"
         id="path10"
         inkscape:connector-curvature="0"
         style="fill:#d34452;stroke-width:3.56576967" /><path
         class="st1"
         d="m 1458.4098,553.75064 c -11.6413,-20.97103 -22.9183,-42.64109 -34.923,-63.6121 -4.7295,-8.03891 -4.7295,-12.23309 4.729,-17.82537 23.282,-13.6312 31.6488,-45.78674 22.1906,-75.14619 -8.0033,-24.46617 -28.375,-38.09735 -57.1135,-38.09735 -25.1008,0 -50.2012,0.69905 -74.9384,-0.34952 -13.0961,-0.34951 -16.0064,4.19422 -15.6427,15.7283 0.7278,29.35942 0.3637,58.36932 0.3637,87.72875 0,26.91281 -0.3637,54.17514 0,81.08796 0.3641,24.4662 -5.0927,22.71863 25.4648,23.06815 9.4582,0 12.7322,-3.4952 12.7322,-12.58263 -0.3637,-20.62152 -0.3637,-40.89353 0,-61.51499 0,-3.49518 -1.4551,-7.33986 1.8192,-9.78649 5.8201,-4.89323 33.8311,0 37.4691,6.64081 9.4582,17.8254 20.7352,34.95173 28.0111,53.82564 7.6393,20.62151 21.099,26.5633 42.1985,23.76717 9.8215,-1.39809 12.7322,-3.84471 7.6394,-12.93214 z m -51.293,-112.19498 c -2.1829,2.79613 -5.4568,4.89321 -9.0944,4.89321 -17.0979,0.34955 -34.5591,0.34955 -51.6568,0.34955 -5.4568,0 -5.0931,-3.49515 -5.0931,-7.33986 0,-11.88359 0.3636,-23.41762 0,-35.30122 -0.3637,-7.68937 1.8192,-11.18455 10.5496,-10.48549 7.2756,0.69901 14.5511,0 21.8267,0 4.3655,0 9.0946,0.3495 13.46,0 10.5494,-0.69906 20.3716,0.3495 24.737,11.53403 4.0017,12.93213 4.0017,25.16522 -4.729,36.34978 z"
         id="path12"
         inkscape:connector-curvature="0"
         style="fill:#d34452;stroke-width:3.56576967" /><path
         class="st1"
         d="m 1256.1483,429.32257 c -1.4552,-39.49546 -29.4662,-69.20438 -66.9353,-71.651 -45.1088,-2.79612 -78.5767,18.17488 -84.7606,56.27225 -5.4569,32.50505 -5.4569,65.35967 0,97.86479 5.8202,35.30121 35.6501,56.27221 75.302,56.27221 38.9244,0 66.9353,-21.32051 74.211,-56.27221 3.2739,-16.0778 1.4551,-32.15561 2.1829,-45.78678 0,-13.98066 0.3637,-25.51471 0,-36.69926 z m -40.3799,76.19471 c -4.729,16.77683 -18.9163,27.61184 -36.7414,27.61184 -18.189,0 -34.1954,-11.18452 -36.7418,-29.00993 -4.3653,-27.61183 -4.3653,-55.92269 0,-83.53456 2.5464,-16.7768 18.189,-27.96135 36.0141,-28.3109 17.8252,-0.34948 32.7401,10.48554 37.4691,26.91286 4.0018,14.67971 1.4555,29.7089 2.5466,44.38863 -1.0911,13.98071 1.4552,27.96138 -2.5466,41.94206 z"
         id="path14"
         inkscape:connector-curvature="0"
         style="fill:#d34452;stroke-width:3.56576967" /></g></g></svg>