<?xml version="1.0" encoding="utf-8"?>
<!-- Generator: Adobe Illustrator 21.0.0, SVG Export Plug-In . SVG Version: 6.00 Build 0)  -->
<svg version="1.1" id="Layer_1" xmlns="http://www.w3.org/2000/svg" xmlns:xlink="http://www.w3.org/1999/xlink" x="0px" y="0px"
	 viewBox="0 0 1920 1000" style="enable-background:new 0 0 1920 1000;" xml:space="preserve">
<style type="text/css">
	.st0{fill:#2BBAAC;}
	.st1{fill:#D34452;}
</style>
<g>
	<g>
		<path class="st0" d="M1155.1,437c-11.6-15.9-23.9-31.4-24.2-53.5c21,18.1,44.3,30.7,69,40.7c24.6,10,50,17.4,75.7,24.8
			c-25.5,7.3-50.8,15-75.2,25.2c-24.6,10.3-47.6,23.3-69.3,40.4c0.3-11.1,3.8-20.4,8.2-29.4c4.5-9.1,10.7-17.1,16.7-26
			c-2,0-3.2,0-4.5,0c-105.6,0-211.2,0-316.8-0.1c-3.3,0-5,1-6.5,4c-9.1,17.8-18.4,35.6-27.7,53.3c-7.4,14.2-14.8,28.3-22.3,42.4
			c-9.2,17.4-18.4,34.8-27.5,52.2c-0.8,1.5-1.7,2-3.4,2c-5.5-0.1-11-0.1-16.5,0c-1.8,0-2.6-0.6-3.3-2.2
			c-4.7-11.4-9.5-22.9-14.2-34.3c-5.6-13.3-11.2-26.6-16.8-39.9c-5.6-13.4-11.3-26.9-16.9-40.3c-5.7-13.4-11.3-26.8-17-40.3
			c-1.3-3-2.7-6-4-9c-1.7-4.1,1.4-8.7,5.8-8.8c4.7,0,9.5,0,14.2,0c1.3,0,2,0.2,2.6,1.7c7.1,17.3,14.4,34.6,21.7,51.8
			c6.9,16.5,14,32.9,20.9,49.4c4.8,11.5,9.5,23.1,14.4,34.6c0.5,1.2,0.8,3.1,2.1,3.2c1.6,0.2,1.7-1.8,2.3-2.9
			c9.4-18,18.8-36,28.2-53.9c7.4-14.1,14.8-28.3,22.3-42.4c7-13.4,14.2-26.7,21.2-40.1c0.8-1.5,1.6-2.4,3.4-2.2c0.9,0.1,1.7,0,2.6,0
			c110.1,0,220.2,0,330.3,0C1151.9,437.5,1153.4,437.9,1155.1,437z"/>
		<path class="st1" d="M859.4,498.3c0-8.7,0.1-17.5,0-26.2c0-2.6,0.8-3.5,3.4-3.5c10.6,0.1,21.2,0.1,31.9,0c3,0,3.8,1.2,3.8,4
			c-0.1,6.1,0,6.1-6.1,6.1c-6.5,0-13,0.1-19.5,0c-2.3,0-3.2,0.6-2.9,2.9c0.4,3.8-1.6,8.7,0.8,11.2c2.1,2.1,6.9,0.5,10.5,0.6
			c3.2,0.1,6.5,0.1,9.7,0c2.2,0,3.3,0.8,3.1,3.1c0,0.2,0,0.5,0,0.7c0.1,6.2,0.1,6.2-6.3,6.2c-5,0-10,0.1-15-0.1
			c-2.4-0.1-3,0.8-2.9,3c0.2,2.9,0.2,5.8,0,8.6c-0.1,2.3,0.6,3,2.9,3c7.2-0.1,14.5,0.1,21.7-0.1c3.4-0.1,4.2,1.4,3.9,4.3
			c-0.3,2.6,1.3,6-3.7,5.9c-10.6-0.2-21.2-0.1-31.9,0c-2.6,0-3.5-0.9-3.5-3.5C859.5,515.8,859.4,507,859.4,498.3z"/>
		<path class="st1" d="M907.6,498.2c0.1-4.5-0.2-9,0.6-13.4c1.9-9.8,9.4-16.4,19.3-16.6c10.9-0.2,19.3,6,21.6,15.9
			c0.5,2.1,0,3.1-2.2,3.1c-1.2,0-2.5-0.1-3.7,0c-2.7,0.4-4.1-0.5-5.3-3.2c-1.7-4.1-6.5-6.3-10.5-5.6c-4.9,0.8-8.1,3.7-8.7,8.9
			c-1,7.3-1,14.7,0,22c0.7,5.2,3.7,8.1,8.7,8.9c4.3,0.7,8.8-1.6,11.1-5.8c1.1-2.1,9.1-3.2,10.6-1.5c0.8,1,0.2,1.9,0,2.8
			c-2.8,9.7-11.2,15.3-22.4,14.7c-9.1-0.4-16.4-7-18.3-16.4C907.3,507.4,907.7,502.8,907.6,498.2z"/>
		<path class="st1" d="M979.4,503.1c0,7-0.1,14,0.1,21c0.1,3-1.1,4.1-4,3.8c-1-0.1-2-0.1-3,0c-2.8,0.3-3.7-0.9-3.7-3.6
			c0.1-14,0-28,0.1-42c0-2.9-0.7-4-3.7-3.7c-2.9,0.3-5.8-0.1-8.6,0.1c-3.1,0.2-4.1-1.1-3.8-4c0.1-0.5,0.1-1,0-1.5
			c-0.5-3.6,0.9-4.8,4.6-4.7c11.2,0.2,22.5,0.2,33.7,0c3.2,0,4.4,0.8,4.3,4.2c-0.2,6,0,5.9-5.9,6c-3.2,0-7.5-1.1-9.4,0.6
			c-2.3,1.9-0.6,6.3-0.7,9.6C979.3,493.6,979.4,498.4,979.4,503.1z"/>
		<path class="st1" d="M1098.7,524.3c-3.2-6-6.3-12.2-9.6-18.2c-1.3-2.3-1.3-3.5,1.3-5.1c6.4-3.9,8.7-13.1,6.1-21.5
			c-2.2-7-7.8-10.9-15.7-10.9c-6.9,0-13.8,0.2-20.6-0.1c-3.6-0.1-4.4,1.2-4.3,4.5c0.2,8.4,0.1,16.7,0.1,25.1c0,7.7-0.1,15.5,0,23.2
			c0.1,7-1.4,6.5,7,6.6c2.6,0,3.5-1,3.5-3.6c-0.1-5.9-0.1-11.7,0-17.6c0-1-0.4-2.1,0.5-2.8c1.6-1.4,9.3,0,10.3,1.9
			c2.6,5.1,5.7,10,7.7,15.4c2.1,5.9,5.8,7.6,11.6,6.8C1099.3,527.6,1100.1,526.9,1098.7,524.3z M1084.6,492.2
			c-0.6,0.8-1.5,1.4-2.5,1.4c-4.7,0.1-9.5,0.1-14.2,0.1c-1.5,0-1.4-1-1.4-2.1c0-3.4,0.1-6.7,0-10.1c-0.1-2.2,0.5-3.2,2.9-3
			c2,0.2,4,0,6,0c1.2,0,2.5,0.1,3.7,0c2.9-0.2,5.6,0.1,6.8,3.3C1087,485.5,1087,489,1084.6,492.2z"/>
		<path class="st1" d="M1043.1,488.7c-0.4-11.3-8.1-19.8-18.4-20.5c-12.4-0.8-21.6,5.2-23.3,16.1c-1.5,9.3-1.5,18.7,0,28
			c1.6,10.1,9.8,16.1,20.7,16.1c10.7,0,18.4-6.1,20.4-16.1c0.9-4.6,0.4-9.2,0.6-13.1C1043.1,495.2,1043.2,491.9,1043.1,488.7z
			 M1032,510.5c-1.3,4.8-5.2,7.9-10.1,7.9c-5,0-9.4-3.2-10.1-8.3c-1.2-7.9-1.2-16,0-23.9c0.7-4.8,5-8,9.9-8.1c4.9-0.1,9,3,10.3,7.7
			c1.1,4.2,0.4,8.5,0.7,12.7C1032.4,502.5,1033.1,506.5,1032,510.5z"/>
	</g>
</g>
</svg>
